<svg version="1.2" xmlns="http://www.w3.org/2000/svg" viewBox="0 0 1552 1552" width="1552" height="1552"><style>.a{fill:#0096d6}</style><path class="a" d="m776 1551.5c-7.7 0-15.4-0.1-23-0.3l158.4-435.6h218.1c38.3 0 80.4-29.5 93.5-65.5l171.8-472.2c28.2-77.3-16-140.6-98.4-140.6h-302.5l-254 697.7h-0.1l-143.9 395.5c-341.3-81.3-595.4-388.3-595.4-754.5 0-355.8 239.6-655.5 566.1-746.9l-148.5 408.2h-0.1l-246.8 678.3h164.4l209.9-576.3h123.6l-210 576.3h164.3l195.6-537.7c28.2-77.3-16.2-140.6-98.3-140.6h-138.1l158.6-436q17.3-0.8 34.8-0.8c428.3 0 775.5 347.2 775.5 775.5 0 428.3-347.2 775.5-775.5 775.5z"/><path class="a" d="m1072.3 1013.3h-123.5l172.9-474.5h123.5z"/></svg>